# xmcd CD database file
#
# Track frame offsets:
#	150
#	21280
#	41187
#	60443
#	81939
#	101955
#	119486
#	137251
#	159175
#	179107
#	198919
#	221288
#	242380
#	261417
#	280414
#
# Disc length: 4001 seconds
#
# Revision: 1
# Processed by: cddbd v1.5.2PL0 Copyright (c) Steve Scherf et al.
# Submitted via: CDex 1.51
#
DISCID=d70f9f0f
DTITLE=Various Artist - Merengue de Amor Vol. 3 [CD 1)
DYEAR=2007
DGENRE=Merengue
TTITLE0=Alex Bueno - Querida
TTITLE1=Eddy Herrera - Ay ven
TTITLE2=Limi-T 21 - Soy
TTITLE3=Los Sabrosos del Merengue - Te amo
TTITLE4=Zafra Negra - Su fotografía
TTITLE5=Grupo Wao - Bonita
TTITLE6=La Makina - Tus Besos
TTITLE7=Ronny Soler - de aquí en adelante
TTITLE8=La Orquesta Joven - Te vine a buscar
TTITLE9=Ramón Orlando - Hecha para mi
TTITLE10=Milly Quezada - Se me amaras
TTITLE11=Los Toros Band - Dejala mia
TTITLE12=Rikarena - Nunca te mentí
TTITLE13=Ravel - Bella Bella
TTITLE14=La Banda Gorda - Te recordaré
EXTD=YEAR: 2007
EXTT0=
EXTT1=
EXTT2=
EXTT3=
EXTT4=
EXTT5=
EXTT6=
EXTT7=
EXTT8=
EXTT9=
EXTT10=
EXTT11=
EXTT12=
EXTT13=
EXTT14=
PLAYORDER=
